<svg xmlns="http://www.w3.org/2000/svg" xmlns:xlink="http://www.w3.org/1999/xlink" width="512" height="512" viewBox="0 0 512 512" role="img" aria-label="Jamatia Islamic Centre"><title>Jamatia Islamic Centre — App icon</title><rect width="512" height="512" fill="#F1F4F5"/><defs>
<linearGradient id="moulding" x2="0" y2="1"><stop stop-color="#c5c6bd"/><stop offset=".48" stop-color="#a4a79e"/><stop offset="1" stop-color="#d9dad0"/></linearGradient>
<linearGradient id="stone" x2=".8" y2="1"><stop stop-color="#d0d0c7"/><stop offset=".5" stop-color="#c1c3ba"/><stop offset="1" stop-color="#d3d4ca"/></linearGradient>
<radialGradient id="orb" cx=".32" cy=".23" r=".84"><stop stop-color="#fffef5"/><stop offset=".55" stop-color="#efefe5"/><stop offset="1" stop-color="#c8cec3"/></radialGradient>
<linearGradient id="glass" x2="1" y2="1"><stop stop-color="#698697"/><stop offset=".6" stop-color="#4c6a7c"/><stop offset="1" stop-color="#3c5667"/></linearGradient>
<linearGradient id="metal" x2="1" y2="1"><stop stop-color="#31434d"/><stop offset="1" stop-color="#112431"/></linearGradient>
<clipPath id="stone-clip"><path d="M365,1126V745C365,646 487,550 642,521C797,550 919,646 919,745V1126Z"/></clipPath>
<clipPath id="glazing-clip"><path d="M403,1118V746C403,665 504,590 642,561C780,590 881,665 881,746V1118Z"/></clipPath>
<g id="pillar" stroke="#5d6463" stroke-width="1.3" stroke-linejoin="miter">
<path d="M211.0,814H283.0V1126H211.0Z" fill="#f5f5f0"/><path d="M274.0,814H283.0V1126H274.0Z" fill="#dddeda" stroke="none"/><path d="M214.0,536H280.0V776H214.0Z" fill="#f5f5f0"/><path d="M271.0,536H280.0V776H271.0Z" fill="#dddeda" stroke="none"/><path d="M218.0,309H276.0V499H218.0Z" fill="#f5f5f0"/><path d="M267.0,309H276.0V499H267.0Z" fill="#dddeda" stroke="none"/><path d="M223.0,241H271.0V280H223.0Z" fill="#f5f5f0"/><path d="M262.0,241H271.0V280H262.0Z" fill="#dddeda" stroke="none"/>
<g>
    <path d="M194.5,773H299.5L305.5,781V791L298.5,798V820L292.5,813H201.5V798L194.5,791Z" fill="#aaaDA6"/>
    <path d="M194.5,773H299.5V785H194.5Z" fill="#d5d5cc"/>
    <path d="M194.5,785H299.5L294.5,795H199.5Z" fill="url(#moulding)"/>
    <path d="M199.5,795H294.5V802H199.5Z" fill="#bebfb6"/>
    <path d="M202.5,802H291.5V813H202.5Z" fill="#dfdfd5"/>
    <path d="M202.5,813H291.5L289.5,817H204.5Z" fill="#b8bcb4"/>
    </g><g>
    <path d="M199.0,496H295.0L301.0,504V514L294.0,521V543L288.0,536H206.0V521L199.0,514Z" fill="#aaaDA6"/>
    <path d="M199.0,496H295.0V508H199.0Z" fill="#d5d5cc"/>
    <path d="M199.0,508H295.0L290.0,518H204.0Z" fill="url(#moulding)"/>
    <path d="M204.0,518H290.0V525H204.0Z" fill="#bebfb6"/>
    <path d="M207.0,525H287.0V536H207.0Z" fill="#dfdfd5"/>
    <path d="M207.0,536H287.0L285.0,540H209.0Z" fill="#b8bcb4"/>
    </g><g>
    <path d="M205.0,277H289.0L295.0,285V295L288.0,302V317L282.0,310H212.0V302L205.0,295Z" fill="#aaaDA6"/>
    <path d="M205.0,277H289.0V289H205.0Z" fill="#d5d5cc"/>
    <path d="M205.0,289H289.0L284.0,299H210.0Z" fill="url(#moulding)"/>
    <path d="M210.0,299H284.0V306H210.0Z" fill="#bebfb6"/>
    <path d="M213.0,306H281.0V310H213.0Z" fill="#dfdfd5"/>
    <path d="M213.0,310H281.0L279.0,314H215.0Z" fill="#b8bcb4"/>
    </g>
<path d="M215,228H272L278,234V249L272,245H215Z" fill="#b2b7ae"/>
<path d="M215,228H272V239H215Z" fill="#d4d6cb"/>
<path d="M215,239H272L269,245H218Z" fill="#b5bcb0"/>
<path d="M232,211H261V228H232Z" fill="#efefe5"/>
<path d="M247,90V171" fill="none" stroke="#253340" stroke-width="3.4"/>
<circle cx="247" cy="159" r="7.7" fill="url(#metal)"/>
<circle cx="247" cy="138" r="9.7" fill="url(#metal)"/>
<circle cx="247" cy="114" r="10.3" fill="url(#metal)"/>
<circle cx="247" cy="192" r="28" fill="url(#orb)"/>
<path d="M221,62C216,83 231,95 247,95C264,95 278,83 273,62C273,79 261,88 247,88C233,88 222,80 221,62Z" fill="#243441" stroke="#111f2c" stroke-width=".8"/>
</g>
</defs><g transform="translate(49 18) scale(0.447)"><g transform="translate(-180 -62)">
<g id="entrance">
<path d="M277,510H1007V1126H277Z" fill="#f7f7f1" stroke="#7d8580" stroke-width="1.2"/>
<path d="M365,1126V745C365,646 487,550 642,521C797,550 919,646 919,745V1126Z" fill="url(#stone)" stroke="#868c86" stroke-width="1.2"/>
<g id="stone-joints" clip-path="url(#stone-clip)" fill="none" stroke="#92978e" stroke-width="1">
<path d="M642,521V549M519,556L531,579M766,556L754,579M409,639L430,658M875,639L854,658M365,731H393M891,731H919M365,860H392M892,860H919M365,993H392M892,993H919"/>
</g>
<path d="M392,1126V745C392,657 498,578 642,549C786,578 892,657 892,745V1126Z" fill="#172a35" stroke="#45525a" stroke-width="1.3"/>
<path d="M403,1118V746C403,665 504,590 642,561C780,590 881,665 881,746V1118Z" fill="url(#glass)"/>
<g clip-path="url(#glazing-clip)">
<g fill="#e7f0f5" opacity=".1"><path d="M240,840 703,470 748,496 300,865Z"/><path d="M238,1190 972,550 1007,615 319,1210Z"/></g>
<g fill="url(#metal)" stroke="#132631" stroke-width="1.2">
<path d="M568,545H577V1126H568Z M709,545H719V1126H709Z M388,711H896V722H388Z M388,790H896V800H388Z M388,839H896V850H388Z"/>
<path d="M403,800H568V838H403Z M579,800H708V838H579Z M720,800H881V838H720Z"/>
<path d="M478,850H490V1126H478Z M794,850H806V1126H794Z"/>
</g>
<g fill="none" stroke="#90a5ad" stroke-opacity=".28" stroke-width="1.2">
<path d="M409,1115V862H474V1115Z M495,1115V862H558V1115Z M582,1115V856H705V1115Z M728,1115V862H788V1115Z M813,1115V862H875V1115Z"/>
</g>
</g>
<g id="handles" fill="#182b36" stroke="#0c202c" stroke-width="1.2">
<rect x="470" y="973" width="8" height="58" rx="2"/><rect x="490" y="973" width="8" height="58" rx="2"/>
<rect x="786" y="973" width="8" height="58" rx="2"/><rect x="806" y="973" width="8" height="58" rx="2"/>
</g></g>
<use xlink:href="#pillar"/>
<use xlink:href="#pillar" transform="translate(1286,0) scale(-1,1)"/>


</g></g></svg>
